<?xml version="1.0" encoding="UTF-8" standalone="no"?>
<svg
   width="1900"
   height="250"
   version="1.1"
   id="svg1"
   sodipodi:docname="wavy-light.svg"
   inkscape:version="1.3.2 (091e20e, 2023-11-25, custom)"
   xmlns:inkscape="http://www.inkscape.org/namespaces/inkscape"
   xmlns:sodipodi="http://sodipodi.sourceforge.net/DTD/sodipodi-0.dtd"
   xmlns="http://www.w3.org/2000/svg"
   xmlns:svg="http://www.w3.org/2000/svg">
  <sodipodi:namedview
     id="namedview1"
     pagecolor="#ffffff"
     bordercolor="#000000"
     borderopacity="0.25"
     inkscape:showpageshadow="2"
     inkscape:pageopacity="0.0"
     inkscape:pagecheckerboard="0"
     inkscape:deskcolor="#d1d1d1"
     inkscape:zoom="0.5"
     inkscape:cx="1231"
     inkscape:cy="-275"
     inkscape:window-width="1920"
     inkscape:window-height="1009"
     inkscape:window-x="-8"
     inkscape:window-y="-8"
     inkscape:window-maximized="1"
     inkscape:current-layer="svg1" />
  <defs
     id="defs1">
    <clipPath
       id="clip0">
      <rect
         fill="white"
         height="250"
         id="svg_1"
         width="1900" />
    </clipPath>
  </defs>
  <g
     class="layer"
     id="g1"
     transform="translate(0,2)">
    <title
       id="title1">Layer 1</title>
    <g
       clip-path="url(#clip0)"
       id="svg_2">
      <path
         d="M 2019.8534,78.583336 C 1960.6135,3.4107388 1879.4,23.16 1861.17,54.65 c -6.94,11.97 8.66,-14.97 0,0 -17.8,30.73 -66.04,40.18 -99.1,19.41 -30.01,-18.84 -38.6,-24.24 -64.35,-40.41 -41.94,-26.34 -103.33,-11.25 -120.25,29.57 -5.85,14.11 6.91,-16.67 0,0 -12.35,29.79 -60.79,36.04 -83.88,10.83 -17.25,-18.85 -14.56,-15.91 -31.86,-34.81 -25.81,-28.19 -78.65,-25.88 -100.58,4.42 -10.26,14.17 -10.17,14.05 -24.25,33.52 -11.11,15.33 -38.99,13.72 -47.34,-2.73 -9.57,-18.91 -6.33,-12.51 -12.99,-25.66 -15.99,-31.55 -67.33,-38.24 -94.65,-12.33 -11.45,10.86 11.94,-11.32 0,0 -29.86,28.31 -83.93,27.81 -112.98,-1.04 -18.16,-18.04 -1.06,-1.05 -15.26,-15.15 -36.8162,-29.251752 -105.92172,-27.3430693 -133.28,9.8 -8.27,12.14 -4.46,6.56 -20.01,29.4 -9.53,13.99 -34.08,14.47 -44.44,0.86 C 843.69,44.23 844.05,44.7 835.29,33.18 815.99,7.82 771.17,6.61 749.85,30.86 c -14.72,16.73 -19.82,22.54 -36,40.92 -14.64,16.65 -46.63,11.53 -52.4,-8.41 -4.84,-16.7 -0.55,-1.91 -4.38,-15.18 -7.16,-24.72 -47.76,-29.72 -63.6,-7.83 -10.73,14.84 -4.86,6.7 -17.01,23.51 -16.45,22.72 -56.88,22.72 -73.33,0 -12.16,-16.81 -0.61,-0.84 -9.92,-13.72 -22.24,-30.73 -77.33,-29.72 -97.85,1.79 -8.16,12.51 9.39,-14.43 0,0 -16.16,24.79 -60.58,22.97 -73.58,-3.02 -6.91,-13.82 3.61,7.2 -3.7,-7.39 -9.64,-19.28 -44.01,-17.18 -50,3.06 -4.15,13.98 0.73,-2.53 -3.87,13.03 -5.6,18.88 -37.34,21.52 -47.51,3.94 -9.46,-16.34 -0.57,-1 -8.39,-14.49 -14.92,-25.77 -60.4,-24.86 -73.74,1.48 -6.69,13.19 2.3,-4.53 -5.83,11.5 C 117.78,81.71 80.72,83.16 67.24,62.46 56.47,45.94 58.1,48.44 47.34,31.92 34.8,12.68 -0.07,15.34 -7.98,36.14 -15.4,55.67 -14.33,52.82 -21.27,71.08 -29.97,93.98 -68.49,96.75 -82,75.43 -94.1,56.31 -87.72,66.39 -98.39,49.56 -115.02,23.29 -162.27,26 -174.2,53.92 -187.27,84.5 -379.29545,128.17969 -431.57545,250.50969 -275.81545,250.50969 668.69,244.87 2385.66,252.55 2064.1905,-167.84378 2130.5535,222.08107 2019.8534,78.583336 Z"
         fill="#282933"
         fill-opacity="1"
         id="svg_3"
         sodipodi:nodetypes="ccccccccccccccccccccccccccccccccccccccccccccccccc" />
    </g>
  </g>
</svg>
